The Spirit Molecule investigates dimethyltryptamine (DMT), an endogenous psychoactive compound, which exists in humans as well as in numerous species of plants and animals. The feature-length documentary traces Dr. Rick Strassman's government sanctioned human DMT research and its many trials, tribulations, achievements, and inconceivable realizations. This includes looking deeper into the intense psychedelic experience that DMT causes when consumed, and examining DMTΓΓé¼Γäós scientific, spiritual, and cultural relevance. Ultimately, The Spirit Molecule explores the connections between cutting-edge neuroscience, quantum physics, and human spirituality.

Although the story revolves around Strassman's research, and the experiences of the human test subjects, the film draws on a variety of experts to voice unique thoughts and experiences with DMT from within their respective fields. The experts include research scientists, doctors, religious leaders, writers, artists, anthropologists, psychologists, physicists, psychonauts, et al. As StrassmanΓΓé¼Γäós story unfolds, these contributors weigh in on his remarkable theories, indigenous use of DMT, the history and future of psychedelics and psychedelic research, and the current news about DMT; including a recent Supreme Court case allowing the use of ayahuasca in the United States within the religious ceremonies of the UDV, a hybrid of indigenousness beliefs with that of Christianity. Other areas of exploration include possible roles for endogenous DMT production, DMTΓΓé¼Γäós role in near-death and birth experiences, alien abduction experiences, and the uncanny likeness to ancient religious texts describing prophets with DMT-like experiences. The contributors offer a comprehensive collection of information, opinions, and speculation to help understand the nature of the DMT experience, and its role in human society and evolution.

In addition to the interviews, the film will feature mind-blowing visualizations of the DMT experience and motion graphics displaying a collection of technical illustrations, charts, and graphs that explain the substanceΓΓé¼Γäós structure and Dr. StrassmanΓΓé¼Γäós physiological findings. We will collaborate, and seek inspiration, from artists like Alex Grey and other Visionary Artists skilled in DMT motivated art to best recreate the visual aspect of the experience.

To better navigate the expansive realms of StrassmanΓΓé¼Γäós DMT universe, popular actor, comedian, and social satirist, Joe Rogan, will serve as tour guide. His own personal experiences with DMT, and a fascination that borders on reverence, have motivated him to be a central component of the project. In stylized scenes reminiscent of Rod SterlingΓΓé¼Γäós famous Twilight Zone bookends, Rogan will shepherd the audience through the great unknowns of the DMT space.

The subtle combination of science, spirituality, and philosophy make this film, and the DMT experience, provocative. It results in an abundance of incredible ideas and theories that could alter the way humans understand the universe and their relationship to it.

Video
ID : 1
Format : AVC
Format/Info : Advanced Video Codec
Format profile : Main@L3.0
Format settings, CABAC : Yes
Format settings, ReFrames : 2 frames
Codec ID : avc1
Codec ID/Info : Advanced Video Coding
Duration : 1h 13mn
Bit rate mode : Variable
Bit rate : 1 459 Kbps
Nominal bit rate : 1 177 Kbps
Width : 716 pixels
Height : 480 pixels
Display aspect ratio : 16:9
Frame rate mode : Variable
Frame rate : 29.970 fps
Original frame rate : 23.976 fps
Minimum frame rate : 14.985 fps
Maximum frame rate : 29.970 fps
Color space : YUV
Chroma subsampling : 4:2:0
Bit depth : 8 bits
Scan type : Progressive
Bits/(Pixel*Frame) : 0.142
Stream size : 770 MiB (92%)
Writing library : x264 core 79
Encoding settings : cabac=1 / ref=2 / deblock=1:0:0 / analyse=0x1:0x111 / me=hex / subme=6 / psy=1 / psy_rd=1.0:0.0 / mixed_ref=0 / me_range=16 / chroma_me=1 / trellis=0 / 8x8dct=0 / cqm=0 / deadzone=21,11 / chroma_qp_offset=-2 / threads=1 / nr=0 / decimate=1 / mbaff=0 / constrained_intra=0 / bframes=2 / b_pyramid=0 / b_adapt=1 / b_bias=0 / direct=1 / wpredb=0 / wpredp=2 / keyint=240 / keyint_min=24 / scenecut=40 / rc_lookahead=40 / rc=abr / mbtree=1 / bitrate=1177 / ratetol=1.0 / qcomp=0.60 / qpmin=10 / qpmax=51 / qpstep=4 / ip_ratio=1.40 / aq=1:1.00
Encoded date : UTC 2010-11-28 13:41:35
Tagged date : UTC 2010-11-28 18:06:55
Color primaries : BT.601-6 525, BT.1358 525, BT.1700 NTSC, SMPTE 170M
Transfer characteristics : BT.709-5, BT.1361
Matrix coefficients : BT.601-6 525, BT.1358 525, BT.1700 NTSC, SMPTE 170M

Audio
ID : 2
Format : AAC
Format/Info : Advanced Audio Codec
Format version : Version 4
Format profile : LC
Codec ID : 40
Duration : 1h 13mn
Bit rate mode : Variable
Bit rate : 121 Kbps
Maximum bit rate : 163 Kbps
Channel(s) : 2 channels
Channel positions : Front: L R
Sampling rate : 48.0 KHz
Compression mode : Lossy
Stream size : 63.8 MiB (8%)
 
http://img440.imageshack.us/img440/5...2911h51m03.png  
http://img403.imageshack.us/img403/3...2911h51m06.png  
http://img130.imageshack.us/img130/5...2911h51m27.png 	